<?xml version="1.0" standalone="no"?>
<!DOCTYPE svg PUBLIC "-//W3C//DTD SVG 20010904//EN"
 "http://www.w3.org/TR/2001/REC-SVG-20010904/DTD/svg10.dtd">
<svg version="1.0" xmlns="http://www.w3.org/2000/svg"
 width="238.000000pt" height="238.000000pt" viewBox="0 0 238.000000 238.000000"
 preserveAspectRatio="xMidYMid meet">

<g transform="translate(0.000000,238.000000) scale(0.100000,-0.100000)"
fill="#000000" stroke="none">
<path d="M0 1190 l0 -1190 1190 0 1190 0 0 1190 0 1190 -1190 0 -1190 0 0
-1190z m1730 1044 c17 -15 37 -39 45 -54 7 -14 37 -150 66 -301 73 -383 75
-400 61 -462 -7 -29 -32 -173 -57 -322 -24 -148 -49 -281 -55 -295 -23 -52
-65 -102 -105 -126 -41 -24 -44 -24 -314 -24 l-272 0 45 64 c26 35 46 67 46
70 0 4 -137 -63 -304 -148 -166 -86 -307 -156 -312 -156 -5 0 -8 60 -6 135 l3
135 -78 0 c-43 0 -95 5 -115 10 -44 13 -95 68 -103 113 -4 18 3 128 15 243 27
254 24 489 -10 643 -34 160 -24 255 34 318 l32 35 634 73 c349 40 654 73 677
74 31 1 49 -5 73 -25z m331 -649 c34 -73 15 -167 -46 -225 l-24 -23 19 52 c25
66 26 151 1 233 l-20 63 25 -30 c14 -16 34 -48 45 -70z m139 -41 c9 -25 9 -43
0 -69 -18 -54 -27 -50 -22 10 2 30 -1 68 -7 86 -9 27 -9 30 4 19 8 -6 19 -27
25 -46z m-1555 -1276 c14 -6 25 -14 25 -18 0 -17 -34 -34 -68 -34 -34 -1 -37
-4 -40 -33 -4 -37 23 -57 61 -48 15 4 28 1 37 -10 12 -15 12 -19 -5 -31 -31
-23 -89 -18 -118 11 -35 36 -41 70 -20 113 27 55 75 74 128 50z m103 -25 c3
-30 6 -33 38 -33 32 0 34 2 34 35 0 31 3 35 25 35 l25 0 0 -100 0 -100 -25 0
c-22 0 -25 4 -25 35 0 33 -2 35 -34 35 -32 0 -35 -3 -38 -32 -2 -28 -8 -34
-30 -36 l-28 -3 0 101 0 101 28 -3 c22 -2 28 -8 30 -35z m212 -63 l0 -100 -25
0 -25 0 0 100 0 100 25 0 25 0 0 -100z m168 73 c-2 -20 -9 -29 -25 -31 -21 -3
-23 -8 -23 -73 0 -67 -1 -69 -25 -69 -24 0 -25 2 -25 69 0 65 -2 70 -22 73
-17 2 -24 11 -26 31 l-3 27 76 0 76 0 -3 -27z m277 15 c14 -6 25 -14 25 -18 0
-15 -27 -30 -55 -30 -37 0 -55 -16 -55 -47 0 -27 31 -46 63 -38 15 4 28 1 37
-10 12 -15 12 -19 -5 -31 -54 -40 -146 8 -148 78 -2 78 68 128 138 96z m105
-23 c0 -33 2 -35 35 -35 33 0 35 2 35 35 0 31 3 35 25 35 l25 0 0 -100 0 -100
-25 0 c-22 0 -25 4 -25 35 0 33 -2 35 -35 35 -33 0 -35 -2 -35 -35 0 -32 -2
-35 -30 -35 l-30 0 0 93 c0 52 3 97 7 100 3 4 17 7 30 7 20 0 23 -5 23 -35z
m290 -52 c18 -49 35 -94 38 -100 2 -8 -5 -13 -22 -13 -15 0 -29 7 -32 15 -8
20 -73 20 -80 0 -6 -15 -54 -22 -54 -7 0 4 12 43 26 87 15 44 29 86 30 93 2 6
16 12 32 12 28 0 31 -5 62 -87z m165 57 c0 -18 -6 -26 -22 -28 -21 -3 -23 -8
-23 -73 0 -67 -1 -69 -25 -69 -24 0 -25 2 -25 69 0 65 -2 70 -22 73 -17 2 -24
11 -26 31 l-3 28 73 -3 c70 -3 73 -4 73 -28z m-725 -80 c0 -17 -7 -20 -45 -20
-38 0 -45 3 -45 20 0 17 7 20 45 20 38 0 45 -3 45 -20z"/>
<path d="M1600 2174 c-21 -5 -937 -111 -1080 -124 -63 -6 -123 -14 -133 -17
-44 -12 -61 -136 -32 -236 36 -130 45 -399 20 -632 -31 -289 -31 -280 -2 -309
25 -25 30 -26 152 -26 l125 0 0 -110 c0 -60 3 -110 8 -110 4 0 178 88 386 195
209 107 381 194 382 192 2 -2 -37 -62 -86 -134 -49 -71 -87 -133 -83 -137 3
-3 81 -6 173 -6 269 0 283 14 325 320 14 102 37 236 51 299 31 137 29 186 -15
401 -18 85 -43 210 -56 278 -14 75 -30 131 -41 143 -16 18 -54 23 -94 13z
m-42 -654 c70 -43 80 -136 20 -192 -25 -23 -39 -28 -80 -28 -44 0 -54 4 -84
34 -28 28 -34 42 -34 75 0 55 21 94 62 114 44 22 76 21 116 -3z m-394 -40 c40
-36 52 -76 36 -125 -37 -113 -193 -113 -230 0 -38 114 103 204 194 125z m-441
-4 c44 -18 69 -58 69 -111 0 -53 -22 -88 -69 -110 -135 -65 -239 137 -111 215
39 23 67 25 111 6z"/>
<path d="M1730 180 c0 -5 5 -10 10 -10 6 0 10 5 10 10 0 6 -4 10 -10 10 -5 0
-10 -4 -10 -10z"/>
</g>
</svg>
